<svg width="200" height="200" viewBox="0 0 200 200" fill="none" xmlns="http://www.w3.org/2000/svg">
  <!-- Background circle -->
  <circle cx="100" cy="100" r="100" fill="#E0E0E0"/>
  
  <!-- Head -->
  <circle cx="100" cy="85" r="40" fill="#BDBDBD"/>
  
  <!-- Body -->
  <path d="M160 200C160 166.863 133.137 140 100 140C66.8629 140 40 166.863 40 200" fill="#BDBDBD"/>
  
  <!-- Question mark -->
  <path d="M100 95C104.418 95 108 91.4183 108 87C108 82.5817 104.418 79 100 79C95.5817 79 92 82.5817 92 87C92 91.4183 95.5817 95 100 95Z" fill="white"/>
  <path d="M100 110V105C106.627 105 112 99.6274 112 93C112 86.3726 106.627 81 100 81C93.3726 81 88 86.3726 88 93" stroke="white" stroke-width="8" stroke-linecap="round"/>
</svg>